<svg xmlns="http://www.w3.org/2000/svg" xmlns:xlink="http://www.w3.org/1999/xlink" width="64px" height="64px" viewBox="0 0 64 64" version="1.1">
<g id="surface1">
<path style=" stroke:none;fill-rule:evenodd;fill:#8f8f8f;fill-opacity:1;" d="M 21.4375 14.804688 C 15.339844 15.636719 9.628906 18.730469 5.851562 23.242188 C 3.785156 25.710938 1.625 29.507812 1.625 30.667969 C 1.625 31.15625 1.761719 31.347656 2.480469 31.855469 C 3.160156 32.335938 3.8125 33.160156 4.054688 33.847656 L 4.238281 34.375 L 3.988281 34.375 C 3.847656 34.375 3.210938 34.3125 2.574219 34.230469 C 1.21875 34.066406 0.832031 34.132812 0.539062 34.582031 C 0.257812 35.007812 0.0195312 36.71875 0.0078125 38.351562 L 0 39.644531 L 0.347656 39.992188 C 0.726562 40.371094 0.570312 40.332031 4.8125 41.058594 C 12.226562 42.324219 20.804688 42.929688 27.8125 42.675781 L 31.0625 42.558594 L 33.8125 43.851562 C 35.324219 44.5625 37.238281 45.414062 38.0625 45.746094 C 42.054688 47.34375 46.773438 48.519531 51.375 49.066406 C 53.5625 49.328125 58.5 49.4375 60.527344 49.269531 C 62.371094 49.121094 63.042969 48.882812 63.566406 48.195312 C 64.308594 47.21875 64.03125 45.59375 63.015625 44.945312 C 62.765625 44.785156 59.546875 43.261719 55.863281 41.558594 L 49.160156 38.460938 L 49.078125 36.636719 C 48.851562 31.605469 47.8125 26.863281 46.246094 23.738281 C 45.207031 21.65625 43.328125 19.476562 41.53125 18.265625 C 39.046875 16.59375 35.914062 15.558594 31.625 14.984375 C 29.203125 14.664062 23.253906 14.558594 21.4375 14.804688 M 23.9375 17.378906 C 22.230469 18.28125 20.304688 20.0625 19.011719 21.933594 C 16.882812 25.015625 15.464844 29.121094 14.820312 34.078125 C 14.617188 35.632812 14.34375 39.726562 14.4375 39.871094 C 14.558594 40.070312 20.339844 40.3125 24.875 40.308594 C 29.074219 40.308594 31.046875 40.230469 34.5 39.925781 L 35.3125 39.855469 L 35.21875 37.742188 C 34.796875 28.144531 31.519531 20.796875 26.253906 17.652344 C 25.035156 16.925781 24.84375 16.902344 23.9375 17.378906 M 30.589844 18.148438 C 33.820312 21.410156 35.925781 25.976562 36.984375 32 C 37.292969 33.75 37.625 37.171875 37.625 38.585938 C 37.625 39.15625 37.667969 39.625 37.71875 39.625 C 38.308594 39.621094 44.886719 38.617188 46.40625 38.300781 L 46.75 38.230469 L 46.75 37.394531 C 46.742188 33.292969 45.5625 27.597656 44.121094 24.742188 C 41.875 20.289062 37.429688 17.824219 30.5 17.191406 L 29.5625 17.105469 L 30.589844 18.148438 M 18.5 17.8125 C 12.664062 19.4375 7.417969 23.746094 4.753906 29.101562 L 4.238281 30.140625 L 4.898438 30.855469 C 6.085938 32.144531 6.625 33.503906 6.625 35.222656 C 6.625 36.074219 6.597656 36.171875 6.257812 36.507812 C 5.835938 36.933594 5.503906 36.960938 3.714844 36.730469 C 2.414062 36.566406 2.378906 36.585938 2.375 37.582031 C 2.375 38.1875 2.398438 38.234375 2.71875 38.300781 C 5.152344 38.789062 11.941406 39.765625 12.066406 39.640625 C 12.097656 39.609375 12.125 39.007812 12.125 38.304688 C 12.125 35.894531 12.621094 32.050781 13.257812 29.5 C 14.4375 24.785156 16.332031 21.050781 18.953125 18.28125 C 19.359375 17.851562 19.664062 17.503906 19.628906 17.507812 C 19.59375 17.515625 19.085938 17.652344 18.5 17.8125 M 45.625 40.824219 C 43.613281 41.214844 39.46875 41.816406 37.433594 42.015625 L 35.847656 42.167969 L 36.539062 42.519531 C 38.308594 43.414062 42.039062 44.742188 44.75 45.441406 C 48.722656 46.464844 51.726562 46.867188 56 46.953125 C 57.753906 46.988281 59.707031 46.96875 60.339844 46.914062 L 61.488281 46.8125 L 54.800781 43.6875 C 50.257812 41.566406 47.960938 40.554688 47.648438 40.542969 C 47.394531 40.53125 46.484375 40.660156 45.625 40.824219 "/>
</g>
</svg>